<svg xmlns="http://www.w3.org/2000/svg" xmlns:xlink="http://www.w3.org/1999/xlink" width="157" zoomAndPan="magnify" viewBox="0 0 117.75 41.25" height="55" preserveAspectRatio="xMidYMid meet" version="1.0"><defs><g/><clipPath id="39998eae2f"><path d="M 33 8 L 116.574219 8 L 116.574219 40 L 33 40 Z M 33 8 " clip-rule="nonzero"/></clipPath><clipPath id="ea611ebecf"><path d="M 66 2 L 83.574219 2 L 83.574219 23 L 66 23 Z M 66 2 " clip-rule="nonzero"/></clipPath><clipPath id="2afff8eae6"><rect x="0" width="84" y="0" height="32"/></clipPath><clipPath id="ce217d5d0c"><path d="M 1.460938 5 L 32 5 L 32 36 L 1.460938 36 Z M 1.460938 5 " clip-rule="nonzero"/></clipPath><clipPath id="295b06c47c"><path d="M 9.515625 13.480469 L 21.667969 13.480469 L 21.667969 25.632812 L 9.515625 25.632812 Z M 9.515625 13.480469 " clip-rule="nonzero"/></clipPath><clipPath id="6e0fa6930a"><path d="M 15.589844 13.480469 C 12.234375 13.480469 9.515625 16.199219 9.515625 19.558594 C 9.515625 22.914062 12.234375 25.632812 15.589844 25.632812 C 18.945312 25.632812 21.667969 22.914062 21.667969 19.558594 C 21.667969 16.199219 18.945312 13.480469 15.589844 13.480469 Z M 15.589844 13.480469 " clip-rule="nonzero"/></clipPath><clipPath id="a4a0358cfd"><path d="M 0.515625 0.480469 L 12.667969 0.480469 L 12.667969 12.632812 L 0.515625 12.632812 Z M 0.515625 0.480469 " clip-rule="nonzero"/></clipPath><clipPath id="f1de721bb5"><path d="M 6.589844 0.480469 C 3.234375 0.480469 0.515625 3.199219 0.515625 6.558594 C 0.515625 9.914062 3.234375 12.632812 6.589844 12.632812 C 9.945312 12.632812 12.667969 9.914062 12.667969 6.558594 C 12.667969 3.199219 9.945312 0.480469 6.589844 0.480469 Z M 6.589844 0.480469 " clip-rule="nonzero"/></clipPath><clipPath id="363fdf2ade"><rect x="0" width="13" y="0" height="13"/></clipPath><clipPath id="2dd067b23f"><path d="M 12.339844 14.179688 L 20.445312 14.179688 L 20.445312 26.703125 L 12.339844 26.703125 Z M 12.339844 14.179688 " clip-rule="nonzero"/></clipPath></defs><g clip-path="url(#39998eae2f)"><g transform="matrix(1, 0, 0, 1, 33, 8)"><g clip-path="url(#2afff8eae6)"><g fill="#3056d3" fill-opacity="1"><g transform="translate(1.155709, 22.045515)"><g><path d="M 6.015625 -20.03125 L 6.015625 -4 L 12.921875 -4 L 12.921875 0 L 1.453125 0 L 1.453125 -20.03125 Z M 6.015625 -20.03125 "/></g></g></g><g fill="#3056d3" fill-opacity="1"><g transform="translate(14.386461, 22.045515)"><g><path d="M 16.84375 -20.03125 L 16.84375 -7.109375 C 16.84375 -4.648438 16.179688 -2.789062 14.859375 -1.53125 C 13.535156 -0.269531 11.59375 0.359375 9.03125 0.359375 C 6.476562 0.359375 4.535156 -0.269531 3.203125 -1.53125 C 1.878906 -2.789062 1.21875 -4.648438 1.21875 -7.109375 L 1.21875 -20.03125 L 5.78125 -20.03125 L 5.78125 -8.453125 C 5.78125 -6.828125 6.035156 -5.695312 6.546875 -5.0625 C 7.054688 -4.4375 7.882812 -4.125 9.03125 -4.125 C 10.175781 -4.125 11.003906 -4.4375 11.515625 -5.0625 C 12.023438 -5.695312 12.28125 -6.828125 12.28125 -8.453125 L 12.28125 -20.03125 Z M 16.84375 -20.03125 "/></g></g></g><g fill="#3056d3" fill-opacity="1"><g transform="translate(31.962796, 22.045515)"><g><path d="M 6.015625 -12.4375 L 6.015625 0 L 1.453125 0 L 1.453125 -20.03125 L 6.015625 -20.03125 L 13.984375 -7.59375 L 14.03125 -7.59375 L 14.03125 -20.03125 L 18.59375 -20.03125 L 18.59375 0 L 14.03125 0 L 6.078125 -12.4375 Z M 6.015625 -12.4375 "/></g></g></g><g fill="#3056d3" fill-opacity="1"><g transform="translate(51.52985, 22.045515)"><g><path d="M 12.921875 -20.03125 L 12.921875 -16.03125 L 6.015625 -16.03125 L 6.015625 -12.046875 L 12.625 -12.046875 L 12.625 -8.03125 L 6.015625 -8.03125 L 6.015625 -4 L 12.921875 -4 L 12.921875 0 L 1.453125 0 L 1.453125 -20.03125 Z M 12.921875 -20.03125 "/></g></g></g><g clip-path="url(#ea611ebecf)"><g fill="#3056d3" fill-opacity="1"><g transform="translate(65.124754, 22.045515)"><g><path d="M 1.453125 -20.03125 L 8.625 -20.03125 C 10.550781 -20.03125 12.117188 -19.515625 13.328125 -18.484375 C 14.546875 -17.460938 15.15625 -15.992188 15.15625 -14.078125 C 15.15625 -12.609375 14.785156 -11.375 14.046875 -10.375 C 13.304688 -9.382812 12.304688 -8.6875 11.046875 -8.28125 L 17.9375 0 L 12.140625 0 L 6.015625 -7.921875 L 6.015625 0 L 1.453125 0 Z M 6.015625 -11.140625 L 6.5625 -11.140625 C 6.976562 -11.140625 7.332031 -11.144531 7.625 -11.15625 C 7.914062 -11.175781 8.242188 -11.234375 8.609375 -11.328125 C 8.984375 -11.429688 9.285156 -11.570312 9.515625 -11.75 C 9.742188 -11.925781 9.9375 -12.179688 10.09375 -12.515625 C 10.257812 -12.859375 10.34375 -13.273438 10.34375 -13.765625 C 10.34375 -14.253906 10.257812 -14.664062 10.09375 -15 C 9.9375 -15.34375 9.742188 -15.601562 9.515625 -15.78125 C 9.285156 -15.957031 8.984375 -16.09375 8.609375 -16.1875 C 8.242188 -16.289062 7.914062 -16.347656 7.625 -16.359375 C 7.332031 -16.378906 6.976562 -16.390625 6.5625 -16.390625 L 6.015625 -16.390625 Z M 6.015625 -11.140625 "/></g></g></g></g></g></g></g><g clip-path="url(#ce217d5d0c)"><path fill="#ffffff" d="M 16.351562 35.429688 C 24.457031 35.429688 31.03125 28.832031 31.03125 20.695312 C 31.03125 12.558594 24.457031 5.964844 16.351562 5.964844 C 8.246094 5.964844 1.675781 12.558594 1.675781 20.695312 C 1.675781 28.832031 8.246094 35.429688 16.351562 35.429688 Z M 16.351562 35.429688 " fill-opacity="1" fill-rule="nonzero"/></g><path fill="#3056d3" d="M 9.917969 11.855469 C 8.660156 11.855469 7.730469 12.960938 7.773438 14.15625 C 7.8125 15.308594 7.761719 16.796875 7.386719 18.011719 C 7.011719 19.226562 6.378906 20 5.34375 20.097656 L 5.34375 21.21875 C 6.378906 21.316406 7.011719 22.089844 7.386719 23.304688 C 7.761719 24.519531 7.8125 26.011719 7.773438 27.160156 C 7.730469 28.355469 8.660156 29.460938 9.917969 29.460938 L 22.789062 29.460938 C 24.046875 29.460938 24.976562 28.355469 24.933594 27.160156 C 24.894531 26.011719 24.945312 24.519531 25.320312 23.304688 C 25.695312 22.089844 26.324219 21.316406 27.359375 21.21875 L 27.359375 20.097656 C 26.324219 20 25.695312 19.230469 25.320312 18.011719 C 24.945312 16.796875 24.894531 15.308594 24.933594 14.15625 C 24.976562 12.960938 24.046875 11.855469 22.789062 11.855469 Z M 20.269531 22.691406 C 20.269531 24.339844 19.046875 25.339844 17.011719 25.339844 L 13.554688 25.339844 C 13.453125 25.339844 13.359375 25.300781 13.289062 25.230469 C 13.21875 25.160156 13.179688 25.066406 13.179688 24.964844 L 13.179688 16.351562 C 13.179688 16.253906 13.21875 16.15625 13.289062 16.085938 C 13.359375 16.015625 13.453125 15.976562 13.554688 15.976562 L 16.992188 15.976562 C 18.6875 15.976562 19.800781 16.898438 19.800781 18.3125 C 19.800781 19.304688 19.050781 20.195312 18.097656 20.351562 L 18.097656 20.402344 C 19.398438 20.542969 20.269531 21.445312 20.269531 22.691406 Z M 16.636719 17.164062 L 14.664062 17.164062 L 14.664062 19.960938 L 16.324219 19.960938 C 17.609375 19.960938 18.316406 19.441406 18.316406 18.515625 C 18.316406 17.644531 17.707031 17.164062 16.636719 17.164062 Z M 14.664062 21.070312 L 14.664062 24.152344 L 16.707031 24.152344 C 18.046875 24.152344 18.753906 23.613281 18.753906 22.601562 C 18.753906 21.589844 18.027344 21.070312 16.621094 21.070312 Z M 14.664062 21.070312 " fill-opacity="1" fill-rule="evenodd"/><g clip-path="url(#295b06c47c)"><g clip-path="url(#6e0fa6930a)"><g transform="matrix(1, 0, 0, 1, 9, 13)"><g clip-path="url(#363fdf2ade)"><g clip-path="url(#a4a0358cfd)"><g clip-path="url(#f1de721bb5)"><path fill="#3056d3" d="M 0.515625 0.480469 L 12.667969 0.480469 L 12.667969 12.632812 L 0.515625 12.632812 Z M 0.515625 0.480469 " fill-opacity="1" fill-rule="nonzero"/></g></g></g></g></g></g><g clip-path="url(#2dd067b23f)"><path fill="#ffffff" d="M 14.550781 14.179688 L 12.617188 14.179688 C 12.464844 14.179688 12.339844 14.304688 12.339844 14.457031 L 12.339844 26.058594 C 12.339844 26.210938 12.464844 26.332031 12.617188 26.332031 L 20.351562 26.332031 C 20.503906 26.332031 20.628906 26.210938 20.628906 26.058594 L 20.628906 24.398438 C 20.628906 24.246094 20.503906 24.125 20.351562 24.125 L 14.828125 24.125 L 14.828125 14.457031 C 14.828125 14.304688 14.703125 14.179688 14.550781 14.179688 Z M 14.550781 14.179688 " fill-opacity="1" fill-rule="nonzero"/></g></svg>